<svg id="Componente_6_1" data-name="Componente 6 – 1" xmlns="http://www.w3.org/2000/svg" width="1241.526" height="527" viewBox="0 0 1241.526 527">
  <g id="Rettangolo_24" data-name="Rettangolo 24" transform="translate(1072.526)" fill="#39608f" stroke="#39608f" stroke-width="1">
    <path d="M0,0H149a20,20,0,0,1,20,20V506a20,20,0,0,1-20,20H0a0,0,0,0,1,0,0V0A0,0,0,0,1,0,0Z" stroke="none"/>
    <path d="M1,.5H149A19.5,19.5,0,0,1,168.5,20V506A19.5,19.5,0,0,1,149,525.5H1a.5.5,0,0,1-.5-.5V1A.5.5,0,0,1,1,.5Z" fill="none"/>
  </g>
  <g id="Poligono_1" data-name="Poligono 1" transform="translate(962.526)" fill="#39608f">
    <path d="M 218.3851623535156 525.5 L 0.6148407459259033 525.5 L 109.5 2.453481674194336 L 218.3851623535156 525.5 Z" stroke="none"/>
    <path d="M 109.5 4.90655517578125 L 1.229598999023438 525 L 217.7704010009766 525 L 109.5 4.90655517578125 M 109.5 0 L 219 526 L 0 526 L 109.5 0 Z" stroke="none" fill="#39608f"/>
  </g>
  <g id="Tracciato_346" data-name="Tracciato 346" transform="translate(0 527) rotate(-90)" fill="#39608f">
    <path d="M 122.1991348266602 1240.02587890625 L 14.52067089080811 1240.02587890625 C 12.68574810028076 1240.02587890625 10.89528656005859 1239.268310546875 9.199132919311523 1237.774291992188 C 7.520517349243164 1236.296020507812 6.008055686950684 1234.169067382812 4.703747749328613 1231.452880859375 C 1.992978692054749 1225.807861328125 0.5000556707382202 1218.291137695312 0.5000556707382202 1210.28759765625 L 0.5000556707382202 1155.901977539062 L 0.5000556707382202 30.23832321166992 C 0.5000556707382202 22.23478507995605 1.992978692054749 14.71817016601562 4.703747749328613 9.073093414306641 C 6.008055686950684 6.356785774230957 7.520517349243164 4.229862689971924 9.199132919311523 2.751554727554321 C 10.89528656005859 1.257554888725281 12.68574810028076 0.5000163912773132 14.52067089080811 0.5000163912773132 L 122.1991348266602 0.5000163912773132 L 122.1991348266602 1240.02587890625 Z" stroke="none"/>
    <path d="M 14.52066802978516 1 C 12.81098175048828 1 11.13174438476562 1.715576171875 9.529594421386719 3.1265869140625 C 7.901596069335938 4.5604248046875 6.429595947265625 6.634033203125 5.154518127441406 9.2894287109375 C 3.856674194335938 11.9921875 2.836051940917969 15.147216796875 2.121131896972656 18.667236328125 C 1.377288818359375 22.3297119140625 1.000053405761719 26.2227783203125 1.000053405761719 30.23828125 L 1.000053405761719 1155.901977539062 L 1.000053405761719 1210.28759765625 C 1.000053405761719 1214.302978515625 1.377288818359375 1218.196044921875 2.121131896972656 1221.858642578125 C 2.836051940917969 1225.378662109375 3.856674194335938 1228.53369140625 5.154518127441406 1231.236328125 C 6.429595947265625 1233.891845703125 7.901596069335938 1235.965209960938 9.529594421386719 1237.399047851562 C 11.13174438476562 1238.810302734375 12.81098175048828 1239.52587890625 14.52066802978516 1239.52587890625 L 121.6991348266602 1239.52587890625 L 121.6991348266602 1 L 14.52066802978516 1 M 14.52066802978516 0 L 122.6991348266602 0 L 122.6991348266602 1240.52587890625 L 14.52066802978516 1240.52587890625 C 6.501129150390625 1240.52587890625 5.340576171875e-05 1226.987670898438 5.340576171875e-05 1210.28759765625 L 5.340576171875e-05 1155.901977539062 L 5.340576171875e-05 30.23828125 C 5.340576171875e-05 13.5379638671875 6.501129150390625 0 14.52066802978516 0 Z" stroke="none" fill="#39608f"/>
  </g>
  <g id="Poligono_2" data-name="Poligono 2" transform="translate(1240.526 324.938) rotate(90)" fill="#39608f">
    <path d="M 157.9677581787109 1240.026123046875 L 0.5329430103302002 1240.026123046875 L 79.25035095214844 7.841698169708252 L 157.9677581787109 1240.026123046875 Z" stroke="none"/>
    <path d="M 79.25035095214844 15.685546875 L 1.065994262695312 1239.52587890625 L 157.4347076416016 1239.52587890625 L 79.25035095214844 15.685546875 M 79.25035095214844 -0.0001220703125 L 158.5006561279297 1240.52587890625 L 4.57763671875e-05 1240.52587890625 L 79.25035095214844 -0.0001220703125 Z" stroke="none" fill="#39608f"/>
  </g>
</svg>
