<svg id="Componente_5_1" data-name="Componente 5 – 1" xmlns="http://www.w3.org/2000/svg" width="1280.882" height="345.729" viewBox="0 0 1280.882 345.729">
  <rect id="Rettangolo_1970" data-name="Rettangolo 1970" width="1280" height="40" transform="translate(0 305.729)" fill="#39608f"/>
  <path id="Tracciato_361" data-name="Tracciato 361" d="M50.775,659.964C132.028,638.719,202.3,578.941,236.3,502.145c11.742-26.517,19.337-54.78,32.053-80.843s31.8-50.67,58.675-61.566c31.366-12.716,67.1-4.624,99.071,6.475,81.573,28.308,159.7,75.869,246.048,75.388,50.2-.278,101.687-16.94,149.592-1.94,25.9,8.11,48.1,24.819,72.387,36.923a219.419,219.419,0,0,0,123.254,21.313V685.133Z" transform="translate(263.5 -353.262)" fill="#39608f"/>
  <path id="Tracciato_362" data-name="Tracciato 362" d="M966.1,643.691c-76.942-20.117-143.487-76.724-175.682-149.445-11.119-25.11-18.311-51.874-30.353-76.554s-30.112-47.982-55.562-58.3c-29.7-12.041-63.536-4.379-93.815,6.131-77.245,26.806-151.231,71.844-232.994,71.388-47.535-.263-96.292-16.041-141.655-1.837-24.522,7.679-45.547,23.5-68.546,34.964A207.778,207.778,0,0,1,50.775,490.221v177.3Z" transform="translate(-50.775 -353.262)" fill="#39608f"/>
</svg>
